<mxfile host="Electron" agent="Mozilla/5.0 (X11; Linux x86_64) AppleWebKit/537.36 (KHTML, like Gecko) draw.io/28.0.6 Chrome/138.0.7204.100 Electron/37.2.3 Safari/537.36" version="28.0.6">
  <diagram name="Page-1" id="eahe4_1t_uIOmDv0yLob">
    <mxGraphModel dx="1026" dy="679" grid="1" gridSize="10" guides="1" tooltips="1" connect="1" arrows="1" fold="1" page="1" pageScale="1" pageWidth="850" pageHeight="1100" math="0" shadow="0">
      <root>
        <mxCell id="0" />
        <mxCell id="1" parent="0" />
        <mxCell id="x5aqzX8iyF7dVYx7mjcl-46" style="rounded=0;orthogonalLoop=1;jettySize=auto;html=1;entryX=0.5;entryY=0;entryDx=0;entryDy=0;" edge="1" parent="1" source="x5aqzX8iyF7dVYx7mjcl-29" target="x5aqzX8iyF7dVYx7mjcl-32">
          <mxGeometry relative="1" as="geometry" />
        </mxCell>
        <mxCell id="x5aqzX8iyF7dVYx7mjcl-29" value="1) Thu thập ứng cử viên:&#xa;IP cục bộ: 10.0.0.20&#xa;IP STUN: 203.0.113.5" style="whiteSpace=wrap;strokeWidth=2;fillColor=#e1d5e7;strokeColor=#9673a6;" vertex="1" parent="1">
          <mxGeometry x="20" y="90" width="208" height="106" as="geometry" />
        </mxCell>
        <mxCell id="x5aqzX8iyF7dVYx7mjcl-49" style="edgeStyle=orthogonalEdgeStyle;rounded=0;orthogonalLoop=1;jettySize=auto;html=1;entryX=0;entryY=0.5;entryDx=0;entryDy=0;" edge="1" parent="1" source="x5aqzX8iyF7dVYx7mjcl-32" target="x5aqzX8iyF7dVYx7mjcl-55">
          <mxGeometry relative="1" as="geometry">
            <mxPoint x="150" y="409" as="targetPoint" />
          </mxGeometry>
        </mxCell>
        <mxCell id="x5aqzX8iyF7dVYx7mjcl-32" value="IP TURN: 192.0.2.10" style="whiteSpace=wrap;strokeWidth=2;fillColor=#e1d5e7;strokeColor=#9673a6;" vertex="1" parent="1">
          <mxGeometry x="20" y="240" width="204" height="60" as="geometry" />
        </mxCell>
        <mxCell id="x5aqzX8iyF7dVYx7mjcl-50" style="edgeStyle=orthogonalEdgeStyle;rounded=0;orthogonalLoop=1;jettySize=auto;html=1;" edge="1" parent="1" source="x5aqzX8iyF7dVYx7mjcl-33" target="x5aqzX8iyF7dVYx7mjcl-36">
          <mxGeometry relative="1" as="geometry" />
        </mxCell>
        <mxCell id="x5aqzX8iyF7dVYx7mjcl-33" value="1) Thu thập ứng cử viên:&#xa;IP cục bộ: 192.168.1.10&#xa;IP STUN: 198.51.100.12" style="whiteSpace=wrap;strokeWidth=2;fillColor=#e1d5e7;strokeColor=#9673a6;" vertex="1" parent="1">
          <mxGeometry x="330" y="90" width="200" height="110" as="geometry" />
        </mxCell>
        <mxCell id="x5aqzX8iyF7dVYx7mjcl-51" style="edgeStyle=orthogonalEdgeStyle;rounded=0;orthogonalLoop=1;jettySize=auto;html=1;exitX=0.5;exitY=1;exitDx=0;exitDy=0;entryX=1;entryY=0.5;entryDx=0;entryDy=0;" edge="1" parent="1" source="x5aqzX8iyF7dVYx7mjcl-36" target="x5aqzX8iyF7dVYx7mjcl-55">
          <mxGeometry relative="1" as="geometry">
            <mxPoint x="410" y="409" as="targetPoint" />
          </mxGeometry>
        </mxCell>
        <mxCell id="x5aqzX8iyF7dVYx7mjcl-36" value="IP TURN: 192.0.2.20" style="whiteSpace=wrap;strokeWidth=2;fillColor=#e1d5e7;strokeColor=#9673a6;" vertex="1" parent="1">
          <mxGeometry x="330" y="240" width="200" height="60" as="geometry" />
        </mxCell>
        <mxCell id="x5aqzX8iyF7dVYx7mjcl-39" value="" style="curved=1;startArrow=none;endArrow=block;exitX=0.5;exitY=1;entryX=0.5;entryY=0;rounded=0;exitDx=0;exitDy=0;" edge="1" parent="1" source="x5aqzX8iyF7dVYx7mjcl-52" target="x5aqzX8iyF7dVYx7mjcl-29">
          <mxGeometry relative="1" as="geometry">
            <Array as="points" />
            <mxPoint x="125" y="74" as="sourcePoint" />
          </mxGeometry>
        </mxCell>
        <mxCell id="x5aqzX8iyF7dVYx7mjcl-40" value="" style="curved=1;startArrow=none;endArrow=block;exitX=0.5;exitY=1;entryX=0.5;entryY=0;rounded=0;exitDx=0;exitDy=0;" edge="1" parent="1" source="x5aqzX8iyF7dVYx7mjcl-53" target="x5aqzX8iyF7dVYx7mjcl-33">
          <mxGeometry relative="1" as="geometry">
            <Array as="points" />
            <mxPoint x="430" y="74" as="sourcePoint" />
          </mxGeometry>
        </mxCell>
        <mxCell id="x5aqzX8iyF7dVYx7mjcl-41" value="2) Trao đổi ứng cử viên qua SIP/SDP" style="startArrow=block;endArrow=block;exitX=1;exitY=0.5;entryX=0;entryY=0.5;rounded=0;exitDx=0;exitDy=0;entryDx=0;entryDy=0;fillColor=#9933FF;" edge="1" parent="1" source="x5aqzX8iyF7dVYx7mjcl-32" target="x5aqzX8iyF7dVYx7mjcl-36">
          <mxGeometry x="0.0655" y="-40" relative="1" as="geometry">
            <mxPoint as="offset" />
          </mxGeometry>
        </mxCell>
        <mxCell id="x5aqzX8iyF7dVYx7mjcl-52" value="&lt;b&gt;SIP Endpoint A&lt;/b&gt;" style="rounded=1;whiteSpace=wrap;html=1;fillColor=#e1d5e7;strokeColor=#9673a6;" vertex="1" parent="1">
          <mxGeometry x="20" width="210" height="60" as="geometry" />
        </mxCell>
        <mxCell id="x5aqzX8iyF7dVYx7mjcl-53" value="&lt;b&gt;SIP Endpoint B&lt;/b&gt;" style="rounded=1;whiteSpace=wrap;html=1;fillColor=#e1d5e7;strokeColor=#9673a6;" vertex="1" parent="1">
          <mxGeometry x="330" width="200" height="60" as="geometry" />
        </mxCell>
        <mxCell id="x5aqzX8iyF7dVYx7mjcl-54" value="&lt;b&gt;4) Chọn đường dẫn tốt nhất&lt;br style=&quot;padding: 0px; margin: 0px;&quot;&gt;(UDP trực tiếp nếu có thể)&lt;/b&gt;" style="ellipse;whiteSpace=wrap;html=1;fillColor=#e1d5e7;strokeColor=#9673a6;" vertex="1" parent="1">
          <mxGeometry x="165" y="430" width="230" height="80" as="geometry" />
        </mxCell>
        <mxCell id="x5aqzX8iyF7dVYx7mjcl-56" style="edgeStyle=orthogonalEdgeStyle;rounded=0;orthogonalLoop=1;jettySize=auto;html=1;" edge="1" parent="1" source="x5aqzX8iyF7dVYx7mjcl-55" target="x5aqzX8iyF7dVYx7mjcl-54">
          <mxGeometry relative="1" as="geometry" />
        </mxCell>
        <mxCell id="x5aqzX8iyF7dVYx7mjcl-55" value="&lt;b&gt;3) Thực hiện kiểm tra kết nối&lt;br style=&quot;padding: 0px; margin: 0px;&quot;&gt;(UDP trực tiếp, STUN, TURN)&lt;/b&gt;" style="rounded=1;whiteSpace=wrap;html=1;fillColor=#e1d5e7;strokeColor=#9673a6;" vertex="1" parent="1">
          <mxGeometry x="150" y="350" width="260" height="60" as="geometry" />
        </mxCell>
      </root>
    </mxGraphModel>
  </diagram>
</mxfile>
